<?xml version="1.0" encoding="UTF-8"?><svg xmlns="http://www.w3.org/2000/svg" xmlns:xlink="http://www.w3.org/1999/xlink" height="778.2" preserveAspectRatio="xMidYMid meet" version="1.0" viewBox="0.0 0.0 778.2 778.2" width="778.2" zoomAndPan="magnify"><g><g id="change1_1"><path d="M778.2,389.1c0,45.5-7.8,89.1-22.1,129.7H222.2V259.4h533.9C770.4,300,778.2,343.6,778.2,389.1z" fill="#f7f7f7"/></g><g id="change2_1"><path d="M756.1,518.8c-10.4,29.5-24.3,57.4-41.2,83.2c-69.5,106.1-189.4,176.2-325.8,176.2c-59.7,0-116.3-13.5-166.9-37.5V518.8 H756.1z" fill="inherit"/></g><g id="change3_1"><path d="M756.1,259.4H222.2V37.5C272.8,13.5,329.4,0,389.1,0c136.3,0,256.3,70.1,325.8,176.2 C731.7,202,745.6,229.9,756.1,259.4z" fill="#006f2e"/></g><g id="change4_1"><path d="M222.2,37.5v703.2c-40-19-76.3-44.7-107.4-75.6C95.6,646,78.3,624.8,63.3,602C23.3,540.8,0,467.7,0,389.1 s23.3-151.7,63.3-212.9c14.9-22.8,32.2-44,51.5-63.2C145.9,82.2,182.2,56.5,222.2,37.5z" fill="#f70000"/></g></g></svg>